<svg width="38" height="38" viewBox="0 0 38 38" fill="none" xmlns="http://www.w3.org/2000/svg">
<path d="M14.2507 7.91664C13.8307 7.91664 13.428 8.08346 13.1311 8.38039C12.8341 8.67732 12.6673 9.08005 12.6673 9.49997C12.6673 9.9199 12.8341 10.3226 13.1311 10.6196C13.428 10.9165 13.8307 11.0833 14.2507 11.0833C14.6706 11.0833 15.0733 10.9165 15.3702 10.6196C15.6672 10.3226 15.834 9.9199 15.834 9.49997C15.834 9.08005 15.6672 8.67732 15.3702 8.38039C15.0733 8.08346 14.6706 7.91664 14.2507 7.91664ZM9.76982 7.91664C10.0969 6.98955 10.7036 6.18674 11.5061 5.61889C12.3086 5.05104 13.2675 4.74609 14.2507 4.74609C15.2338 4.74609 16.1927 5.05104 16.9952 5.61889C17.7977 6.18674 18.4044 6.98955 18.7315 7.91664H30.084C30.5039 7.91664 30.9066 8.08346 31.2036 8.38039C31.5005 8.67732 31.6673 9.08005 31.6673 9.49997C31.6673 9.9199 31.5005 10.3226 31.2036 10.6196C30.9066 10.9165 30.5039 11.0833 30.084 11.0833H18.7315C18.4044 12.0104 17.7977 12.8132 16.9952 13.3811C16.1927 13.9489 15.2338 14.2539 14.2507 14.2539C13.2675 14.2539 12.3086 13.9489 11.5061 13.3811C10.7036 12.8132 10.0969 12.0104 9.76982 11.0833H7.91732C7.49739 11.0833 7.09466 10.9165 6.79773 10.6196C6.5008 10.3226 6.33398 9.9199 6.33398 9.49997C6.33398 9.08005 6.5008 8.67732 6.79773 8.38039C7.09466 8.08346 7.49739 7.91664 7.91732 7.91664H9.76982ZM23.7507 17.4166C23.3307 17.4166 22.928 17.5835 22.6311 17.8804C22.3341 18.1773 22.1673 18.58 22.1673 19C22.1673 19.4199 22.3341 19.8226 22.6311 20.1196C22.928 20.4165 23.3307 20.5833 23.7507 20.5833C24.1706 20.5833 24.5733 20.4165 24.8702 20.1196C25.1672 19.8226 25.334 19.4199 25.334 19C25.334 18.58 25.1672 18.1773 24.8702 17.8804C24.5733 17.5835 24.1706 17.4166 23.7507 17.4166ZM19.2698 17.4166C19.5969 16.4895 20.2036 15.6867 21.0061 15.1189C21.8086 14.551 22.7675 14.2461 23.7507 14.2461C24.7338 14.2461 25.6927 14.551 26.4952 15.1189C27.2977 15.6867 27.9044 16.4895 28.2315 17.4166H30.084C30.5039 17.4166 30.9066 17.5835 31.2036 17.8804C31.5005 18.1773 31.6673 18.58 31.6673 19C31.6673 19.4199 31.5005 19.8226 31.2036 20.1196C30.9066 20.4165 30.5039 20.5833 30.084 20.5833H28.2315C27.9044 21.5104 27.2977 22.3132 26.4952 22.8811C25.6927 23.4489 24.7338 23.7539 23.7507 23.7539C22.7675 23.7539 21.8086 23.4489 21.0061 22.8811C20.2036 22.3132 19.5969 21.5104 19.2698 20.5833H7.91732C7.49739 20.5833 7.09466 20.4165 6.79773 20.1196C6.5008 19.8226 6.33398 19.4199 6.33398 19C6.33398 18.58 6.5008 18.1773 6.79773 17.8804C7.09466 17.5835 7.49739 17.4166 7.91732 17.4166H19.2698ZM14.2507 26.9166C13.8307 26.9166 13.428 27.0835 13.1311 27.3804C12.8341 27.6773 12.6673 28.08 12.6673 28.5C12.6673 28.9199 12.8341 29.3226 13.1311 29.6196C13.428 29.9165 13.8307 30.0833 14.2507 30.0833C14.6706 30.0833 15.0733 29.9165 15.3702 29.6196C15.6672 29.3226 15.834 28.9199 15.834 28.5C15.834 28.08 15.6672 27.6773 15.3702 27.3804C15.0733 27.0835 14.6706 26.9166 14.2507 26.9166ZM9.76982 26.9166C10.0969 25.9895 10.7036 25.1867 11.5061 24.6189C12.3086 24.051 13.2675 23.7461 14.2507 23.7461C15.2338 23.7461 16.1927 24.051 16.9952 24.6189C17.7977 25.1867 18.4044 25.9895 18.7315 26.9166H30.084C30.5039 26.9166 30.9066 27.0835 31.2036 27.3804C31.5005 27.6773 31.6673 28.08 31.6673 28.5C31.6673 28.9199 31.5005 29.3226 31.2036 29.6196C30.9066 29.9165 30.5039 30.0833 30.084 30.0833H18.7315C18.4044 31.0104 17.7977 31.8132 16.9952 32.3811C16.1927 32.9489 15.2338 33.2539 14.2507 33.2539C13.2675 33.2539 12.3086 32.9489 11.5061 32.3811C10.7036 31.8132 10.0969 31.0104 9.76982 30.0833H7.91732C7.49739 30.0833 7.09466 29.9165 6.79773 29.6196C6.5008 29.3226 6.33398 28.9199 6.33398 28.5C6.33398 28.08 6.5008 27.6773 6.79773 27.3804C7.09466 27.0835 7.49739 26.9166 7.91732 26.9166H9.76982Z" fill="#E06C20"/>
</svg>
