<svg width="20" height="20" viewBox="0 0 20 20" fill="none" xmlns="http://www.w3.org/2000/svg">
<path d="M14.5 1C16.9829 1 18.9998 3.03801 19 5.77734C19 7.44451 18.2929 9.03287 16.8672 10.8652C15.7887 12.2513 14.3516 13.7121 12.6064 15.3984L10.7607 17.166L10.7588 17.167L10 17.8916L9.24121 17.167L9.23926 17.166L7.39355 15.3984C5.6484 13.7121 4.21129 12.2513 3.13281 10.8652C1.70709 9.03287 1 7.44451 1 5.77734C1.00019 3.03801 3.0171 1 5.5 1C6.91883 1 8.31187 1.69915 9.22559 2.81738L10 3.76562L10.7744 2.81738C11.6881 1.69915 13.0812 1 14.5 1Z" stroke="white" stroke-width="2"/>
</svg>
