<svg width="24" height="24" viewBox="0 0 24 24" fill="none" xmlns="http://www.w3.org/2000/svg">
<rect width="24" height="24" rx="5" fill="#E06C20"/>
<path fill-rule="evenodd" clip-rule="evenodd" d="M9.60078 6.40078C9.60078 5.97643 9.76935 5.56947 10.0694 5.26941C10.3695 4.96935 10.7764 4.80078 11.2008 4.80078H12.8008C13.2251 4.80078 13.6321 4.96935 13.9322 5.26941C14.2322 5.56947 14.4008 5.97643 14.4008 6.40078V9.60078H17.6008C18.0251 9.60078 18.4321 9.76935 18.7322 10.0694C19.0322 10.3695 19.2008 10.7764 19.2008 11.2008V12.8008C19.2008 13.2251 19.0322 13.6321 18.7322 13.9322C18.4321 14.2322 18.0251 14.4008 17.6008 14.4008H14.4008V17.6008C14.4008 18.0251 14.2322 18.4321 13.9322 18.7322C13.6321 19.0322 13.2251 19.2008 12.8008 19.2008H11.2008C10.7764 19.2008 10.3695 19.0322 10.0694 18.7322C9.76935 18.4321 9.60078 18.0251 9.60078 17.6008V14.4008H6.40078C5.97643 14.4008 5.56947 14.2322 5.26941 13.9322C4.96935 13.6321 4.80078 13.2251 4.80078 12.8008V11.2008C4.80078 10.7764 4.96935 10.3695 5.26941 10.0694C5.56947 9.76935 5.97643 9.60078 6.40078 9.60078H9.60078V6.40078Z" fill="white"/>
</svg>
