<svg width="44" height="44" viewBox="0 0 44 44" fill="none" xmlns="http://www.w3.org/2000/svg">
<path d="M21.9999 3.66602C18.5963 3.66602 15.3321 5.01809 12.9254 7.42481C10.5187 9.83153 9.16658 13.0957 9.16658 16.4993V22.9673C9.16684 23.2517 9.10094 23.5323 8.97408 23.7868L5.82625 30.0807C5.67248 30.3882 5.59987 30.7299 5.61532 31.0733C5.63077 31.4167 5.73376 31.7505 5.91451 32.043C6.09527 32.3354 6.34778 32.5768 6.64807 32.7442C6.94836 32.9116 7.28646 32.9994 7.63025 32.9993H36.3696C36.7134 32.9994 37.0515 32.9116 37.3518 32.7442C37.6521 32.5768 37.9046 32.3354 38.0853 32.043C38.2661 31.7505 38.3691 31.4167 38.3845 31.0733C38.4 30.7299 38.3274 30.3882 38.1736 30.0807L35.0276 23.7868C34.9001 23.5325 34.8335 23.2519 34.8332 22.9673V16.4993C34.8332 13.0957 33.4812 9.83153 31.0744 7.42481C28.6677 5.01809 25.4035 3.66602 21.9999 3.66602ZM21.9999 38.4993C20.8621 38.4999 19.752 38.1476 18.8228 37.4909C17.8935 36.8342 17.1909 35.9055 16.8116 34.8327H27.1882C26.809 35.9055 26.1063 36.8342 25.177 37.4909C24.2478 38.1476 23.1378 38.4999 21.9999 38.4993Z" fill="white"/>
</svg>
