<svg width="164" height="35" viewBox="0 0 164 35" fill="none" xmlns="http://www.w3.org/2000/svg">
<rect x="91" y="10" width="23" height="23" rx="3" stroke="#E06C20" stroke-width="2"/>
<ellipse cx="101.823" cy="20.9989" rx="3.38376" ry="3.38365" fill="#E06C20"/>
<rect x="95.0557" y="25.6367" width="13.5351" height="3.38365" rx="1.69183" fill="#E06C20"/>
<path fill-rule="evenodd" clip-rule="evenodd" d="M110.595 22.8315C110.596 22.8488 110.596 22.8661 110.596 22.8835C110.596 23.6997 109.934 24.3613 109.118 24.3613C108.302 24.3613 107.64 23.6997 107.64 22.8835C107.64 22.8722 107.64 22.8609 107.64 22.8496H107.639L107.639 22.7806C107.639 18.4252 104.474 14.8088 100.318 14.1059C100.799 14.0246 101.293 13.9823 101.797 13.9823C106.656 13.9823 110.595 17.9214 110.595 22.7806L110.595 22.8315Z" fill="#E06C20"/>
<path d="M1.008 32L4.032 10.724H13.212L12.96 12.344H6.12L5.04 19.976H10.512L10.26 21.776H4.788L3.348 32H1.008ZM13.0666 32L16.0906 10.724H18.3586L15.3346 32H13.0666ZM21.5789 32L24.3509 12.344H20.7869L21.0389 10.724H30.5069L30.2549 12.344H26.6189L23.8469 32H21.5789ZM30.1877 32L33.2117 10.724H35.1917L39.5117 27.356L41.8517 10.724H43.9037L40.8797 32H38.8277L34.5077 15.98L32.2397 32H30.1877ZM45.4103 32L48.4343 10.724H57.6143L57.3623 12.344H50.5223L49.4423 19.976H54.9143L54.6623 21.776H49.1903L48.0023 30.38H54.8423L54.5903 32H45.4103ZM62.4662 32.252C61.2182 32.252 60.1982 32.06 59.4062 31.676C58.6142 31.292 58.0742 30.656 57.7862 29.768C57.4982 28.856 57.4622 27.596 57.6782 25.988L57.8582 24.8H60.1622L59.9822 26.132C59.7902 27.332 59.7782 28.268 59.9462 28.94C60.1142 29.588 60.4142 30.044 60.8462 30.308C61.2782 30.572 61.8182 30.704 62.4662 30.704C63.2822 30.704 64.0262 30.416 64.6982 29.84C65.3702 29.24 65.8142 28.184 66.0302 26.672C66.1742 25.592 66.1142 24.788 65.8502 24.26C65.6102 23.708 65.1902 23.276 64.5902 22.964C64.0142 22.628 63.2822 22.268 62.3942 21.884C61.6742 21.572 61.0382 21.2 60.4862 20.768C59.9582 20.312 59.5742 19.724 59.3342 19.004C59.0942 18.284 59.0462 17.372 59.1902 16.268C59.3582 15.02 59.6702 13.988 60.1262 13.172C60.6062 12.332 61.2542 11.708 62.0702 11.3C62.8862 10.892 63.9302 10.688 65.2022 10.688C66.8582 10.688 68.0702 11.108 68.8382 11.948C69.6302 12.764 69.9182 13.928 69.7022 15.44L69.3782 17.78C69.0182 17.78 68.6462 17.78 68.2622 17.78C67.9022 17.78 67.5422 17.78 67.1822 17.78L67.4342 15.98C67.5782 14.828 67.4462 13.964 67.0382 13.388C66.6542 12.788 65.9702 12.488 64.9862 12.488C63.9302 12.488 63.1262 12.8 62.5742 13.424C62.0222 14.024 61.6502 14.948 61.4582 16.196C61.3382 17.108 61.4102 17.828 61.6742 18.356C61.9622 18.884 62.3582 19.304 62.8622 19.616C63.3902 19.928 63.9902 20.216 64.6622 20.48C65.6942 20.888 66.5102 21.32 67.1102 21.776C67.7342 22.208 68.1422 22.772 68.3342 23.468C68.5502 24.164 68.5742 25.136 68.4062 26.384C68.1902 27.848 67.7942 29.012 67.2182 29.876C66.6422 30.716 65.9342 31.328 65.0942 31.712C64.2782 32.072 63.4022 32.252 62.4662 32.252ZM75.931 32.252C74.683 32.252 73.663 32.06 72.871 31.676C72.079 31.292 71.539 30.656 71.251 29.768C70.963 28.856 70.927 27.596 71.143 25.988L71.323 24.8H73.627L73.447 26.132C73.255 27.332 73.243 28.268 73.411 28.94C73.579 29.588 73.879 30.044 74.311 30.308C74.743 30.572 75.283 30.704 75.931 30.704C76.747 30.704 77.491 30.416 78.163 29.84C78.835 29.24 79.279 28.184 79.495 26.672C79.639 25.592 79.579 24.788 79.315 24.26C79.075 23.708 78.655 23.276 78.055 22.964C77.479 22.628 76.747 22.268 75.859 21.884C75.139 21.572 74.503 21.2 73.951 20.768C73.423 20.312 73.039 19.724 72.799 19.004C72.559 18.284 72.511 17.372 72.655 16.268C72.823 15.02 73.135 13.988 73.591 13.172C74.071 12.332 74.719 11.708 75.535 11.3C76.351 10.892 77.395 10.688 78.667 10.688C80.323 10.688 81.535 11.108 82.303 11.948C83.095 12.764 83.383 13.928 83.167 15.44L82.843 17.78C82.483 17.78 82.111 17.78 81.727 17.78C81.367 17.78 81.007 17.78 80.647 17.78L80.899 15.98C81.043 14.828 80.911 13.964 80.503 13.388C80.119 12.788 79.435 12.488 78.451 12.488C77.395 12.488 76.591 12.8 76.039 13.424C75.487 14.024 75.115 14.948 74.923 16.196C74.803 17.108 74.875 17.828 75.139 18.356C75.427 18.884 75.823 19.304 76.327 19.616C76.855 19.928 77.455 20.216 78.127 20.48C79.159 20.888 79.975 21.32 80.575 21.776C81.199 22.208 81.607 22.772 81.799 23.468C82.015 24.164 82.039 25.136 81.871 26.384C81.655 27.848 81.259 29.012 80.683 29.876C80.107 30.716 79.399 31.328 78.559 31.712C77.743 32.072 76.867 32.252 75.931 32.252Z" fill="#E06C20"/>
<path d="M119.008 34L121.996 12.724H128.584C129.76 12.724 130.672 13.012 131.32 13.588C131.992 14.14 132.244 15.028 132.076 16.252L131.716 18.844C131.62 19.516 131.428 20.116 131.14 20.644C130.876 21.148 130.564 21.556 130.204 21.868C129.82 22.204 129.388 22.432 128.908 22.552C128.428 22.648 128.032 22.708 127.72 22.732V22.66C128.2 22.66 128.656 22.72 129.088 22.84C129.52 22.936 129.868 23.14 130.132 23.452C130.444 23.788 130.66 24.22 130.78 24.748C130.924 25.252 130.948 25.852 130.852 26.548L130.456 29.644C130.288 30.844 129.964 31.756 129.484 32.38C129.004 33.004 128.404 33.436 127.684 33.676C126.964 33.892 126.136 34 125.2 34H119.008ZM121.42 32.704H124.948C125.5 32.704 125.992 32.632 126.424 32.488C126.88 32.32 127.252 32.008 127.54 31.552C127.828 31.072 128.032 30.376 128.152 29.464L128.584 26.548C128.752 25.396 128.56 24.64 128.008 24.28C127.48 23.896 126.784 23.704 125.92 23.704H122.716L121.42 32.704ZM122.932 22.192H126.1C127.06 22.192 127.828 21.928 128.404 21.4C128.98 20.872 129.34 20.104 129.484 19.096L129.844 16.648C129.964 15.76 129.82 15.112 129.412 14.704C129.004 14.272 128.464 14.056 127.792 14.056H124.048L122.932 22.192ZM138.848 34.432C137.792 34.432 136.868 34.312 136.076 34.072C135.308 33.832 134.744 33.34 134.384 32.596C134.048 31.828 133.988 30.676 134.204 29.14L135.896 17.152C136.088 15.808 136.46 14.8 137.012 14.128C137.588 13.456 138.296 13.012 139.136 12.796C140 12.556 140.948 12.436 141.98 12.436C143.036 12.436 143.948 12.556 144.716 12.796C145.508 13.036 146.084 13.492 146.444 14.164C146.828 14.836 146.936 15.832 146.768 17.152L145.076 29.104C144.86 30.664 144.464 31.828 143.888 32.596C143.312 33.34 142.592 33.832 141.728 34.072C140.888 34.312 139.928 34.432 138.848 34.432ZM139.064 33.028C139.664 33.028 140.216 32.956 140.72 32.812C141.224 32.668 141.644 32.368 141.98 31.912C142.34 31.432 142.592 30.712 142.736 29.752L144.464 17.152C144.608 16.192 144.572 15.484 144.356 15.028C144.14 14.572 143.804 14.272 143.348 14.128C142.892 13.96 142.364 13.876 141.764 13.876C141.14 13.876 140.576 13.96 140.072 14.128C139.568 14.272 139.148 14.572 138.812 15.028C138.476 15.484 138.236 16.192 138.092 17.152L136.328 29.752C136.208 30.712 136.256 31.432 136.472 31.912C136.688 32.368 137.024 32.668 137.48 32.812C137.936 32.956 138.464 33.028 139.064 33.028ZM146.566 34L151.534 23.164L149.914 12.724H152.146L153.478 21.688L157.582 12.724H159.922L155.062 23.2L156.826 34H154.558L153.046 25.036L148.978 34H146.566Z" fill="#E06C20"/>
</svg>
