<svg width="212" height="46" viewBox="0 0 212 46" fill="none" xmlns="http://www.w3.org/2000/svg">
<rect x="118.5" y="11.5" width="30" height="30" rx="4.5" stroke="#E06C20" stroke-width="3"/>
<ellipse cx="132.606" cy="25.8375" rx="4.46657" ry="4.46642" fill="#E06C20"/>
<rect x="123.673" y="31.959" width="17.8663" height="4.46642" rx="2.23321" fill="#E06C20"/>
<path fill-rule="evenodd" clip-rule="evenodd" d="M144.184 28.2471C144.185 28.2728 144.186 28.2986 144.186 28.3246C144.186 29.402 143.312 30.2754 142.235 30.2754C141.158 30.2754 140.284 29.402 140.284 28.3246C140.284 28.3095 140.284 28.2944 140.285 28.2793H140.282C140.282 28.249 140.282 28.2186 140.282 28.1882C140.282 22.4389 136.105 17.6653 130.619 16.7375C131.253 16.6302 131.905 16.5743 132.57 16.5743C138.985 16.5743 144.184 21.774 144.184 28.1882C144.184 28.2078 144.184 28.2274 144.184 28.2471Z" fill="#E06C20"/>
<path d="M1.344 43L5.376 14.632H17.616L17.28 16.792H8.16L6.72 26.968H14.016L13.68 29.368H6.384L4.464 43H1.344ZM17.4221 43L21.4541 14.632H24.4781L20.4461 43H17.4221ZM28.7719 43L32.4679 16.792H27.7159L28.0519 14.632H40.6759L40.3399 16.792H35.4919L31.7959 43H28.7719ZM40.2503 43L44.2823 14.632H46.9223L52.6823 36.808L55.8023 14.632H58.5383L54.5063 43H51.7703L46.0103 21.64L42.9863 43H40.2503ZM60.5471 43L64.5791 14.632H76.8191L76.4831 16.792H67.3631L65.9231 26.968H73.2191L72.8831 29.368H65.5871L64.0031 40.84H73.1231L72.7871 43H60.5471ZM83.2883 43.336C81.6243 43.336 80.2643 43.08 79.2083 42.568C78.1523 42.056 77.4323 41.208 77.0483 40.024C76.6643 38.808 76.6163 37.128 76.9043 34.984L77.1443 33.4H80.2163L79.9763 35.176C79.7203 36.776 79.7043 38.024 79.9283 38.92C80.1523 39.784 80.5523 40.392 81.1283 40.744C81.7043 41.096 82.4243 41.272 83.2883 41.272C84.3763 41.272 85.3683 40.888 86.2643 40.12C87.1603 39.32 87.7523 37.912 88.0403 35.896C88.2323 34.456 88.1523 33.384 87.8003 32.68C87.4803 31.944 86.9203 31.368 86.1203 30.952C85.3523 30.504 84.3763 30.024 83.1923 29.512C82.2323 29.096 81.3843 28.6 80.6483 28.024C79.9443 27.416 79.4323 26.632 79.1123 25.672C78.7923 24.712 78.7283 23.496 78.9203 22.024C79.1443 20.36 79.5603 18.984 80.1683 17.896C80.8083 16.776 81.6723 15.944 82.7603 15.4C83.8483 14.856 85.2403 14.584 86.9363 14.584C89.1443 14.584 90.7603 15.144 91.7843 16.264C92.8403 17.352 93.2243 18.904 92.9363 20.92L92.5043 24.04C92.0243 24.04 91.5283 24.04 91.0163 24.04C90.5363 24.04 90.0563 24.04 89.5763 24.04L89.9123 21.64C90.1043 20.104 89.9283 18.952 89.3843 18.184C88.8723 17.384 87.9603 16.984 86.6483 16.984C85.2403 16.984 84.1683 17.4 83.4323 18.232C82.6963 19.032 82.2003 20.264 81.9443 21.928C81.7843 23.144 81.8803 24.104 82.2323 24.808C82.6163 25.512 83.1443 26.072 83.8163 26.488C84.5203 26.904 85.3203 27.288 86.2163 27.64C87.5923 28.184 88.6803 28.76 89.4803 29.368C90.3123 29.944 90.8563 30.696 91.1123 31.624C91.4003 32.552 91.4323 33.848 91.2083 35.512C90.9203 37.464 90.3923 39.016 89.6243 40.168C88.8563 41.288 87.9123 42.104 86.7923 42.616C85.7043 43.096 84.5363 43.336 83.2883 43.336ZM101.241 43.336C99.5774 43.336 98.2174 43.08 97.1614 42.568C96.1054 42.056 95.3854 41.208 95.0014 40.024C94.6174 38.808 94.5694 37.128 94.8574 34.984L95.0974 33.4H98.1694L97.9294 35.176C97.6734 36.776 97.6574 38.024 97.8814 38.92C98.1054 39.784 98.5054 40.392 99.0814 40.744C99.6574 41.096 100.377 41.272 101.241 41.272C102.329 41.272 103.321 40.888 104.217 40.12C105.113 39.32 105.705 37.912 105.993 35.896C106.185 34.456 106.105 33.384 105.753 32.68C105.433 31.944 104.873 31.368 104.073 30.952C103.305 30.504 102.329 30.024 101.145 29.512C100.185 29.096 99.3374 28.6 98.6014 28.024C97.8974 27.416 97.3854 26.632 97.0654 25.672C96.7454 24.712 96.6814 23.496 96.8734 22.024C97.0974 20.36 97.5134 18.984 98.1214 17.896C98.7614 16.776 99.6254 15.944 100.713 15.4C101.801 14.856 103.193 14.584 104.889 14.584C107.097 14.584 108.713 15.144 109.737 16.264C110.793 17.352 111.177 18.904 110.889 20.92L110.457 24.04C109.977 24.04 109.481 24.04 108.969 24.04C108.489 24.04 108.009 24.04 107.529 24.04L107.865 21.64C108.057 20.104 107.881 18.952 107.337 18.184C106.825 17.384 105.913 16.984 104.601 16.984C103.193 16.984 102.121 17.4 101.385 18.232C100.649 19.032 100.153 20.264 99.8974 21.928C99.7374 23.144 99.8334 24.104 100.185 24.808C100.569 25.512 101.097 26.072 101.769 26.488C102.473 26.904 103.273 27.288 104.169 27.64C105.545 28.184 106.633 28.76 107.433 29.368C108.265 29.944 108.809 30.696 109.065 31.624C109.353 32.552 109.385 33.848 109.161 35.512C108.873 37.464 108.345 39.016 107.577 40.168C106.809 41.288 105.865 42.104 104.745 42.616C103.657 43.096 102.489 43.336 101.241 43.336Z" fill="#E06C20"/>
<path d="M154.344 43L158.328 14.632H167.112C168.68 14.632 169.896 15.016 170.76 15.784C171.656 16.52 171.992 17.704 171.768 19.336L171.288 22.792C171.16 23.688 170.904 24.488 170.52 25.192C170.168 25.864 169.752 26.408 169.272 26.824C168.76 27.272 168.184 27.576 167.544 27.736C166.904 27.864 166.376 27.944 165.96 27.976V27.88C166.6 27.88 167.208 27.96 167.784 28.12C168.36 28.248 168.824 28.52 169.176 28.936C169.592 29.384 169.88 29.96 170.04 30.664C170.232 31.336 170.264 32.136 170.136 33.064L169.608 37.192C169.384 38.792 168.952 40.008 168.312 40.84C167.672 41.672 166.872 42.248 165.912 42.568C164.952 42.856 163.848 43 162.6 43H154.344ZM157.56 41.272H162.264C163 41.272 163.656 41.176 164.232 40.984C164.84 40.76 165.336 40.344 165.72 39.736C166.104 39.096 166.376 38.168 166.536 36.952L167.112 33.064C167.336 31.528 167.08 30.52 166.344 30.04C165.64 29.528 164.712 29.272 163.56 29.272H159.288L157.56 41.272ZM159.576 27.256H163.8C165.08 27.256 166.104 26.904 166.872 26.2C167.64 25.496 168.12 24.472 168.312 23.128L168.792 19.864C168.952 18.68 168.76 17.816 168.216 17.272C167.672 16.696 166.952 16.408 166.056 16.408H161.064L159.576 27.256ZM180.797 43.576C179.389 43.576 178.157 43.416 177.101 43.096C176.077 42.776 175.325 42.12 174.845 41.128C174.397 40.104 174.317 38.568 174.605 36.52L176.861 20.536C177.117 18.744 177.613 17.4 178.349 16.504C179.117 15.608 180.061 15.016 181.181 14.728C182.333 14.408 183.597 14.248 184.973 14.248C186.381 14.248 187.597 14.408 188.621 14.728C189.677 15.048 190.445 15.656 190.925 16.552C191.437 17.448 191.581 18.776 191.357 20.536L189.101 36.472C188.813 38.552 188.285 40.104 187.517 41.128C186.749 42.12 185.789 42.776 184.637 43.096C183.517 43.416 182.237 43.576 180.797 43.576ZM181.085 41.704C181.885 41.704 182.621 41.608 183.293 41.416C183.965 41.224 184.525 40.824 184.973 40.216C185.453 39.576 185.789 38.616 185.981 37.336L188.285 20.536C188.477 19.256 188.429 18.312 188.141 17.704C187.853 17.096 187.405 16.696 186.797 16.504C186.189 16.28 185.485 16.168 184.685 16.168C183.853 16.168 183.101 16.28 182.429 16.504C181.757 16.696 181.197 17.096 180.749 17.704C180.301 18.312 179.981 19.256 179.789 20.536L177.437 37.336C177.277 38.616 177.341 39.576 177.629 40.216C177.917 40.824 178.365 41.224 178.973 41.416C179.581 41.608 180.285 41.704 181.085 41.704ZM191.088 43L197.712 28.552L195.552 14.632H198.528L200.304 26.584L205.776 14.632H208.896L202.416 28.6L204.768 43H201.744L199.728 31.048L194.304 43H191.088Z" fill="#E06C20"/>
</svg>
